<svg width="23" height="23" viewBox="0 0 23 23" fill="none" xmlns="http://www.w3.org/2000/svg">
<path d="M23 11.4009C23 11.323 23 11.2345 22.9974 11.1319C22.9949 10.8452 22.9897 10.5231 22.9846 10.1797C22.9641 9.19221 22.9281 8.20822 22.8717 7.28085C22.7946 6.00308 22.6817 4.93767 22.5277 4.13773C22.3651 3.30293 22.0466 2.54157 21.6038 1.92975C21.1609 1.31793 20.6094 0.877087 20.0044 0.651277C19.2779 0.382271 17.8558 0.215912 15.8536 0.113266C14.9012 0.0637118 13.8821 0.0318557 12.8631 0.014158C12.5063 0.00707889 12.1751 0.00353955 11.8773 0H11.1227C10.8249 0.00353955 10.4938 0.00707889 10.1369 0.014158C9.11786 0.0318557 8.09877 0.0637118 7.14643 0.113266C5.1442 0.219452 3.71953 0.385811 2.99565 0.651277C2.39036 0.876532 1.83864 1.31719 1.39577 1.9291C0.952906 2.541 0.634451 3.30266 0.472321 4.13773C0.315737 4.93767 0.205357 6.00308 0.128348 7.28085C0.071875 8.20822 0.0359375 9.19221 0.0154017 10.1797C0.00770085 10.5231 0.00513389 10.8452 0.00256693 11.1319C0.00256693 11.2345 0 11.323 0 11.4009V11.5991C0 11.677 -3.91688e-08 11.7655 0.00256693 11.8681C0.00513389 12.1548 0.0102678 12.4769 0.0154017 12.8203C0.0359375 13.8078 0.071875 14.7918 0.128348 15.7191C0.205357 16.9969 0.318304 18.0623 0.472321 18.8623C0.800893 20.5577 1.76607 21.8957 2.99565 22.3487C3.71953 22.6177 5.1442 22.7841 7.14643 22.8867C8.09877 22.9363 9.11786 22.9681 10.1369 22.9858C10.4938 22.9929 10.8249 22.9965 11.1227 23H11.8773C12.1751 22.9965 12.5063 22.9929 12.8631 22.9858C13.8821 22.9681 14.9012 22.9363 15.8536 22.8867C17.8558 22.7805 19.2805 22.6142 20.0044 22.3487C21.2339 21.8957 22.1991 20.5613 22.5277 18.8623C22.6843 18.0623 22.7946 16.9969 22.8717 15.7191C22.9281 14.7918 22.9641 13.8078 22.9846 12.8203C22.9923 12.4769 22.9949 12.1548 22.9974 11.8681C22.9974 11.7655 23 11.677 23 11.5991V11.4009ZM21.1518 11.5849C21.1518 11.6593 21.1518 11.7407 21.1492 11.8363C21.1467 12.1123 21.1415 12.4167 21.1364 12.7459C21.1184 13.6874 21.0825 14.629 21.0286 15.5032C20.9593 16.643 20.8617 17.5774 20.7411 18.2039C20.5819 19.0215 20.1147 19.6693 19.5243 19.8852C18.9853 20.0834 17.6273 20.2427 15.7817 20.3383C14.8473 20.3878 13.8411 20.4197 12.8374 20.4374C12.4857 20.4444 12.1597 20.448 11.8671 20.448H11.1329L10.1626 20.4374C9.15893 20.4197 8.15525 20.3878 7.2183 20.3383C5.37266 20.2391 4.01217 20.0834 3.47567 19.8852C2.88527 19.6657 2.41808 19.0215 2.25893 18.2039C2.13828 17.5774 2.04074 16.643 1.97143 15.5032C1.91752 14.629 1.88415 13.6874 1.86362 12.7459C1.85592 12.4167 1.85335 12.1088 1.85078 11.8363C1.85078 11.7407 1.84821 11.6557 1.84821 11.5849V11.4151C1.84821 11.3407 1.84821 11.2593 1.85078 11.1637C1.85335 10.8877 1.85848 10.5833 1.86362 10.2541C1.88159 9.31256 1.91752 8.37104 1.97143 7.49677C2.04074 6.35703 2.13828 5.42259 2.25893 4.79609C2.41808 3.97845 2.88527 3.33072 3.47567 3.1148C4.01473 2.91659 5.37266 2.75731 7.2183 2.66174C8.15268 2.61219 9.15893 2.58033 10.1626 2.56263C10.5143 2.55556 10.8403 2.55202 11.1329 2.55202H11.8671L12.8374 2.56263C13.8411 2.58033 14.8448 2.61219 15.7817 2.66174C17.6273 2.76085 18.9878 2.91659 19.5243 3.1148C20.1147 3.33426 20.5819 3.97845 20.7411 4.79609C20.8617 5.42259 20.9593 6.35703 21.0286 7.49677C21.0825 8.37104 21.1158 9.31256 21.1364 10.2541C21.1441 10.5833 21.1467 10.8912 21.1492 11.1637C21.1492 11.2593 21.1518 11.3443 21.1518 11.4151V11.5849ZM9.2154 16.243L15.1708 11.4646L9.2154 6.757V16.243Z" fill="#72748E"/>
</svg>